<?xml version="1.0" encoding="iso-8859-1"?>
<!-- Generator: Adobe Illustrator 16.0.0, SVG Export Plug-In . SVG Version: 6.00 Build 0)  -->
<!DOCTYPE svg PUBLIC "-//W3C//DTD SVG 1.1//EN" "http://www.w3.org/Graphics/SVG/1.1/DTD/svg11.dtd">
<svg version="1.1" id="Capa_1" xmlns="http://www.w3.org/2000/svg" xmlns:xlink="http://www.w3.org/1999/xlink" x="0px" y="0px"
	 width="612px" height="612px" viewBox="0 0 612 612" style="enable-background:new 0 0 612 612;" xml:space="preserve">
<g>
	<g>
		<path d="M560.848,153.549c-31.716-42.365-77.496-75.037-128.18-90.571c-9.211-2.824-18.519,2.439-21.061,11.104
			c-2.567,8.794,2.433,18.551,11.131,21.055c90.597,26.125,155.857,117.081,155.857,210.604
			c0,94.229-65.261,184.865-155.857,211.247c-8.691,2.503-13.57,11.683-11.131,21.054c1.778,6.868,8.422,11.747,15.944,11.747
			c0.905,0,2.658-0.449,5.116-1.22c50.504-15.47,96.175-47.821,128.18-90.571C594.438,413.194,612,362.613,612,305.741
			C612,249.505,594.727,198.738,560.848,153.549z"/>
		<path d="M492.846,405.363c21.362-29.206,32.197-62.585,32.197-99.622c0-36.651-10.835-69.773-32.197-98.979
			c-21.362-29.142-50.081-48.912-85.449-60.467c-8.871-2.888-18.416,1.477-21.061,10.849c-2.465,8.729,2.465,17.845,11.131,20.477
			c28.346,8.473,51.075,24.969,68.304,48.719c17.081,23.494,25.875,49.939,25.875,79.402c0,29.848-8.653,56.358-25.875,80.044
			c-17.081,23.558-40.022,39.412-68.304,48.143c-8.73,2.695-13.75,12.388-11.131,21.054c2.202,7.317,8.724,11.747,15.945,11.747
			c2.104,0,3.908-0.257,5.115-0.899C442.899,454.718,471.483,434.569,492.846,405.363z"/>
		<path d="M425.145,355.097c10.604-14.699,15.945-31.004,15.945-49.361c0-17.717-5.418-33.956-15.945-48.72
			c-10.533-14.764-23.936-25.354-41.222-30.683c-9.212-2.824-18.352,2.439-21.664,11.104c-2.407,8.729,1.887,17.78,11.13,20.798
			c20.554,6.611,34.604,25.868,34.604,47.5c0,22.017-14.051,41.53-34.604,48.142c-9.243,3.017-13.794,12.132-11.13,20.797
			c2.156,6.997,9.025,11.747,15.944,11.747c1.502,0,3.28-0.385,5.72-1.22C401.048,379.424,414.688,369.604,425.145,355.097z"/>
		<path d="M333.983,91.221c-6.374-2.889-12.254-2.695-17.755,1.798L178.125,205.856H16.548C7.221,205.856,0,213.366,0,222.745
			v166.956c0,9.371,7.221,16.561,16.548,16.561h161.578l138.103,112.267c2.991,2.376,6.316,3.595,10.231,3.595
			c3.312,0,5.977-0.385,7.523-1.22c6.277-3.401,9.326-8.408,9.326-15.341V105.978C343.31,99.052,340.242,94.045,333.983,91.221z
			 M309.912,470.958l-115.239-94.159c-3.312-2.696-6.618-3.916-10.534-3.916H33.397V239.306H184.14c3.909,0,7.549-1.22,10.534-3.659
			l115.239-94.486V470.958z"/>
	</g>
</g>
<g>
</g>
<g>
</g>
<g>
</g>
<g>
</g>
<g>
</g>
<g>
</g>
<g>
</g>
<g>
</g>
<g>
</g>
<g>
</g>
<g>
</g>
<g>
</g>
<g>
</g>
<g>
</g>
<g>
</g>
</svg>
